# xmcd
#
# Track frame offsets: 
#        150
#        4621
#        6290
#        28767
#        63630
#        92749
#        112161
#        151006
#        172583
#
# Disc length: 2627 seconds
#
# Revision: 0
# Processed by: cddbd v1.5.2PL0 Copyright (c) Steve Scherf et al.
# Submitted via: ExactAudioCopy v0.99pb4
#
DISCID=610a4109
DTITLE=Sunset Heights - live at Fitzgeralds 
DYEAR=2008
DGENRE=Blues/Rock
TTITLE0=Say What
TTITLE1=Missin You
TTITLE2=Room Full of Mirrors
TTITLE3=Equality
TTITLE4=Flood in Houston
TTITLE5=Movin' On
TTITLE6=Dust My Broom
TTITLE7=?
TTITLE8=?
EXTD=
EXTT0=
EXTT1=
EXTT2=
EXTT3=
EXTT4=
EXTT5=
EXTT6=
EXTT7=
EXTT8=
PLAYORDER=
